<svg id="visual" viewBox="0 0 900 600" width="900" height="600" xmlns="http://www.w3.org/2000/svg" xmlns:xlink="http://www.w3.org/1999/xlink" version="1.1"><path d="M0 525L25 522.3C50 519.7 100 514.3 150 515.5C200 516.7 250 524.3 300 522.8C350 521.3 400 510.7 450 510C500 509.3 550 518.7 600 523.7C650 528.7 700 529.3 750 525.8C800 522.3 850 514.7 875 510.8L900 507L900 601L875 601C850 601 800 601 750 601C700 601 650 601 600 601C550 601 500 601 450 601C400 601 350 601 300 601C250 601 200 601 150 601C100 601 50 601 25 601L0 601Z" fill="#ff84a9"></path><path d="M0 537L25 536.5C50 536 100 535 150 535C200 535 250 536 300 538.8C350 541.7 400 546.3 450 550.8C500 555.3 550 559.7 600 562.2C650 564.7 700 565.3 750 560.3C800 555.3 850 544.7 875 539.3L900 534L900 601L875 601C850 601 800 601 750 601C700 601 650 601 600 601C550 601 500 601 450 601C400 601 350 601 300 601C250 601 200 601 150 601C100 601 50 601 25 601L0 601Z" fill="#1a1d21"></path></svg>